<svg id="Capa_1" data-name="Capa 1" xmlns="http://www.w3.org/2000/svg" xmlns:xlink="http://www.w3.org/1999/xlink" viewBox="0 0 407.69 499.18"><defs><linearGradient id="gradiente_web" x1="404.83" y1="249.9" x2="-2.86" y2="249.25" gradientUnits="userSpaceOnUse"><stop offset="0" stop-color="#ffbe0b"/><stop offset="1" stop-color="#f76e2e"/></linearGradient></defs><path d="M395.73,173.78H353.68V12.05A12.23,12.23,0,0,0,341.63,0h-69a12.22,12.22,0,0,0-12.05,12.05V46.22H215.7V25.14a12.23,12.23,0,0,0-12.06-12H134.69a12.22,12.22,0,0,0-12.06,12.05V51.48H65.75A12.24,12.24,0,0,0,53.68,63.54V173.78h-42c-15.52,0-15.55,24.11,0,24.11h91.83C111.13,246.63,152.72,285,203.69,285c49.48,0,92.52-38.11,100.21-87.13h76.69q-28.66,124.37-57.34,248.72l-6.57,28.46H90.7L45.85,280.54q-3.33-14.44-6.67-28.88c-3.48-15.11-26.75-8.72-23.26,6.4q23.48,101.7,46.9,203.39,3.32,14.43,6.66,28.88c1.18,5.12,6.51,8.85,11.63,8.85H326.26c5.11,0,10.45-3.73,11.63-8.85q30.44-132,60.86-264L407.36,189C409.1,181.46,403.82,173.78,395.73,173.78Zm-111-92.59V24.11h44.83V173.79H293a11.71,11.71,0,0,0-8.31,3.45Q284.74,129.21,284.73,81.19ZM77.8,173.78V75.58h44.83V177.22a11.65,11.65,0,0,0-8.31-3.44Zm68.72,61.41a13.31,13.31,0,0,0,.24-2.49V37.19h44.82V260A77.11,77.11,0,0,1,146.52,235.19Zm69.27,24.74V70.31h44.83V235.44A77.17,77.17,0,0,1,215.79,259.93Z" style="fill:url(#gradiente_web)"/></svg>