<svg id="Capa_1" data-name="Capa 1" xmlns="http://www.w3.org/2000/svg" xmlns:xlink="http://www.w3.org/1999/xlink" viewBox="0 0 511.64 509.01"><defs><linearGradient id="gradiente_web" x1="48.81" y1="114.11" x2="188.81" y2="114.11" gradientUnits="userSpaceOnUse"><stop offset="0" stop-color="#ffbe0b"/><stop offset="1" stop-color="#f76e2e"/></linearGradient><linearGradient id="gradiente_web-2" x1="42.81" y1="114.11" x2="194.81" y2="114.11" xlink:href="#gradiente_web"/><linearGradient id="gradiente_web-3" x1="206.68" y1="49.4" x2="230.91" y2="49.4" xlink:href="#gradiente_web"/><linearGradient id="gradiente_web-4" x1="200.68" y1="49.4" x2="236.91" y2="49.4" xlink:href="#gradiente_web"/><linearGradient id="gradiente_web-5" x1="6" y1="254.5" x2="505.64" y2="254.5" xlink:href="#gradiente_web"/><linearGradient id="gradiente_web-6" x1="0" y1="254.5" x2="511.64" y2="254.5" xlink:href="#gradiente_web"/></defs><path d="M181.8,49.42c-31.49,7.28-58,20.12-78.75,38.16a179.38,179.38,0,0,0-54,84,5.73,5.73,0,0,0,3.84,7.13,5.81,5.81,0,0,0,1.64.24A5.71,5.71,0,0,0,60,174.86a168,168,0,0,1,50.55-78.64c19.33-16.8,44.16-28.8,73.82-35.65a5.72,5.72,0,0,0-2.58-11.15" style="stroke-miterlimit:10;stroke-width:12px;fill:url(#gradiente_web);stroke:url(#gradiente_web-2)"/><path d="M224.77,43.09c-4.39.33-8.78.74-13,1.23a5.72,5.72,0,0,0,.64,11.4,4.87,4.87,0,0,0,.66,0c4.1-.47,8.32-.86,12.56-1.17a5.73,5.73,0,1,0-.84-11.42" style="stroke-miterlimit:10;stroke-width:12px;fill:url(#gradiente_web-3);stroke:url(#gradiente_web-4)"/><path d="M489.13,327.1c-1.7,9.34-10.32,17-20.07,17.79-9.94.82-19.45-4.68-29.51-10.5-5.66-3.28-11.47-6.63-17.6-9l16.26-23a2,2,0,0,1,1.65-.85h30a23.49,23.49,0,0,0,8.27-1.5,35.22,35.22,0,0,1,5.24,6.45C488.23,314.34,490.18,321.26,489.13,327.1Zm-24.05,46.71H46.55c-.89,0-1.76.05-2.63.13V349.17a34.81,34.81,0,0,0,4.21-.1c9.32-.8,17.29-5.1,25-9.26,7.08-3.83,13.78-7.43,20.84-7.95,10.34-.74,19.42,3.91,29,8.82,13.53,6.93,28.87,14.78,48.12,5.61a87.4,87.4,0,0,0,11.78-7.18c5.38-3.67,10.46-7.15,16-8.22,10-1.92,19.32,3.35,29.16,8.93,6.31,3.57,12.83,7.26,19.87,9.22,13.6,3.78,24.33-2.4,33.8-7.87,6.83-3.95,13.28-7.67,20.32-7.67h.29c7.26.1,13.9,4.67,20.92,9.52,5.78,4,11.76,8.12,18.8,10.35a32.58,32.58,0,0,0,13.69,1.44A34.79,34.79,0,0,0,406,347.9l9.05-12.77c6.19,1.9,12.33,5.44,18.76,9.16,10.32,6,21,12.13,33.21,12.13h.68v17.53C466.84,373.86,466,373.81,465.08,373.81ZM483.2,412.4a79.24,79.24,0,0,1-79.14,79.16H107.57A79.24,79.24,0,0,1,28.43,412.4v-9a18.14,18.14,0,0,1,18.12-18.12H465.08a18.14,18.14,0,0,1,18.12,18.12ZM27.29,329.85a21.9,21.9,0,0,1-5.53-17.47,25.28,25.28,0,0,1,7.13-14.81,23.93,23.93,0,0,0,13.28,4H315.48a2,2,0,0,1,1.65.85l28.34,40c-5.38-1.72-10.39-5.18-15.69-8.84-8.12-5.59-16.51-11.39-27.24-11.54h-.46c-10.11,0-18.56,4.88-26,9.2-8.6,5-16,9.25-25,6.76-5.7-1.59-11.34-4.78-17.31-8.17-10.69-6.05-22.82-12.92-36.95-10.19-7.91,1.52-14.23,5.83-20.34,10A78.34,78.34,0,0,1,166.19,336c-14.14,6.75-25.19,1.09-38-5.46-10.59-5.42-21.54-11-35.07-10-9.5.69-17.61,5.06-25.44,9.28-7,3.78-13.6,7.34-20.55,7.94A24.45,24.45,0,0,1,27.29,329.85Zm6-60.34A12,12,0,0,1,41.81,266H469.46a12.36,12.36,0,0,1,12.45,11.79,12.09,12.09,0,0,1-5.84,10.65l-.07,0a12.06,12.06,0,0,1-6.18,1.7h-30a13.46,13.46,0,0,0-11,5.68L408,325.34l-.06.1-11.23,15.84a23.29,23.29,0,0,1-38,0l-32.2-45.44a13.48,13.48,0,0,0-11-5.68H42.17a12.37,12.37,0,0,1-12.45-11.8A12,12,0,0,1,33.27,269.51Zm434.54-41.24a19.59,19.59,0,0,1-18.38,26.26H62.64c-10.74,0-19.72-8.54-20-19a19.45,19.45,0,0,1,1.18-7.22ZM20,213.66a9.52,9.52,0,0,1-2.53-7.31A205.6,205.6,0,0,1,86.85,68.93c39.46-34.29,94.43-51.55,163.88-51.55A492,492,0,0,1,308.88,21c53.06,6.29,98.17,27.69,130.45,61.88a204.45,204.45,0,0,1,54.83,123.45,9.58,9.58,0,0,1-2.53,7.33,9.73,9.73,0,0,1-7.21,3.15H27.21A9.7,9.7,0,0,1,20,213.66Zm467.6,79.81a23.3,23.3,0,0,0,5.75-16,23.83,23.83,0,0,0-20.14-22.66A30.78,30.78,0,0,0,480.44,235a31.21,31.21,0,0,0-.73-6.68h4.71a21.2,21.2,0,0,0,21.15-22.85A215.91,215.91,0,0,0,447.65,75C413.5,38.87,366,16.26,310.23,9.64,265.75,4.35,225.08,4.83,189.34,11c-44.23,7.69-81.24,24.26-110,49.26A216.42,216.42,0,0,0,6.07,205.42a21.18,21.18,0,0,0,21.14,22.85h4.71a31.09,31.09,0,0,0-.72,7.53,30.43,30.43,0,0,0,7.26,19,23.56,23.56,0,0,0-20.17,23.88,23,23,0,0,0,2.85,10.51,36.87,36.87,0,0,0-10.75,21.92,33.26,33.26,0,0,0,8.41,26.46,35.66,35.66,0,0,0,13.67,9.27v30.59a29.59,29.59,0,0,0-15.48,26v9A90.84,90.84,0,0,0,107.57,503H404.06a90.85,90.85,0,0,0,90.59-90.61v-9a29.57,29.57,0,0,0-15.5-26V354.2a33.77,33.77,0,0,0,21.24-25.06c1.58-8.75-.9-18.4-7.37-28.68a45.37,45.37,0,0,0-5.42-7" style="stroke-miterlimit:10;stroke-width:12px;fill:url(#gradiente_web-5);stroke:url(#gradiente_web-6)"/></svg>