<svg id="Capa_1" data-name="Capa 1" xmlns="http://www.w3.org/2000/svg" xmlns:xlink="http://www.w3.org/1999/xlink" viewBox="0 0 504.61 504.35"><defs><linearGradient id="gradiente_web" x1="3" y1="252.18" x2="501.61" y2="252.18" gradientUnits="userSpaceOnUse"><stop offset="0" stop-color="#ffbe0b"/><stop offset="1" stop-color="#f76e2e"/></linearGradient><linearGradient id="gradiente_web-2" x1="0" y1="252.18" x2="504.61" y2="252.18" xlink:href="#gradiente_web"/></defs><path d="M443.72,3a5.23,5.23,0,0,0-2.87.67L426.46,12,406.07,23.84a5.2,5.2,0,0,0-2,6.9,14.21,14.21,0,0,1-5.25,19v0a13.8,13.8,0,0,1-7.33,1.82A5.21,5.21,0,0,0,386.16,56,21.39,21.39,0,0,1,346.69,64a5.18,5.18,0,0,0-7-1.7L296.05,87.52l0,0-16.09,9.31a5.17,5.17,0,0,0-1.9,7.08C306,152.44,366.76,170,413.72,142.84S475.89,54.11,448,5.61A5.16,5.16,0,0,0,443.72,3ZM114.21,9a5.2,5.2,0,0,0-4.28,7.84l15.8,27.24a32.47,32.47,0,0,0-26.1,54c-.76.65-1.68,1.08-2.41,1.78a32.72,32.72,0,0,0-.16,46.34,32.09,32.09,0,0,0,12.14,7.17,32.42,32.42,0,0,0,6.44,34.84,4,4,0,0,0,.54.65l0,0c9.31,9.22,23.08,11.44,35.11,6.77a29,29,0,0,0,3.47,4.83v0a33,33,0,0,0,37,6.36,29.79,29.79,0,0,0,2.3,3s0,0,0,0a33.14,33.14,0,0,0,46.58-.19,32.63,32.63,0,0,0,9.09-28.06A31.66,31.66,0,0,0,255,178a32.71,32.71,0,0,0,3.47-42.34,29.89,29.89,0,0,0,4.14-3.41h0a32.59,32.59,0,0,0-23.47-55.83,32.37,32.37,0,0,0-8.88-28.7h0a32.94,32.94,0,0,0-35.3-7.12,31.85,31.85,0,0,0-7-11.14,32.57,32.57,0,0,0-23.26-9.47,33.21,33.21,0,0,0-23.32,9.63,32.72,32.72,0,0,0-6.6,9.39L118.94,11.61a5.27,5.27,0,0,0-4.73-2.68Zm158.71,5.73a26,26,0,1,0,26,25.94A26,26,0,0,0,272.92,14.72Zm168.21.81c21.69,43,7.81,94.92-32.62,118.33S316.31,143.35,290,103L296.89,99a82.45,82.45,0,0,0,57.83,36.36,79.19,79.19,0,0,0,13.61.65c.51,0,1,0,1.49,0,.22,0,.43,0,.62,0s.44-.05.65-.05a78.32,78.32,0,0,0,27.73-7.17c.08-.05.16-.05.22-.11.43-.19.84-.4,1.27-.62a.6.6,0,0,0,.32-.19c.41-.19.84-.41,1.25-.62a1.88,1.88,0,0,1,.29-.14c.92-.48,1.84-1,2.76-1.51A78.21,78.21,0,0,0,431.71,100c.14-.22.25-.38.35-.57s.27-.4.41-.62A82.52,82.52,0,0,0,436,18.51ZM426.9,23.78a72.42,72.42,0,0,1,2,59.16,68.89,68.89,0,0,1-24,30.3c-.11.11-.22.14-.33.25l-.81.56a2.92,2.92,0,0,1-.57.35,3.38,3.38,0,0,0-.67.47c-.33.21-.63.37-.93.56a3.91,3.91,0,0,1-.45.3c-.46.27-.95.57-1.44.84s-.94.57-1.43.81a4.21,4.21,0,0,1-.55.3l-.89.46c-.21.13-.45.22-.7.38s-.46.21-.68.29-.56.3-.83.44a1.89,1.89,0,0,0-.44.19,68.64,68.64,0,0,1-38.09,5.68A71.91,71.91,0,0,1,306,93.76l35-20.28c9.95,11.3,26.64,14.58,39.92,6.9h0a31.62,31.62,0,0,0,14.36-18.83A23.44,23.44,0,0,0,404,58.79a24.68,24.68,0,0,0,11.12-28.22Zm-154,1.33a15.57,15.57,0,1,1-15.58,15.58A15.5,15.5,0,0,1,272.92,25.11ZM164.71,30.3a22.48,22.48,0,0,1,15.94,6.49,22,22,0,0,1,6.17,11.94,5.21,5.21,0,0,0,7.92,3.49,22.65,22.65,0,0,1,28.19,2.83,22.08,22.08,0,0,1,4.25,25.38,5.19,5.19,0,0,0,6.11,7.25,22.64,22.64,0,0,1,22.18,5.57,22.16,22.16,0,0,1-.16,31.6,23.07,23.07,0,0,1-7,4.7,5.18,5.18,0,0,0-1.35,8.66l.86.79A22.37,22.37,0,0,1,242,174.7a5.24,5.24,0,0,0-2.65,6,22.41,22.41,0,0,1-5.89,21.7,22.49,22.49,0,0,1-35.63-4.65,5.17,5.17,0,0,0-7.36-1.82,22.7,22.7,0,0,1-28.33-2.76,21.94,21.94,0,0,1-4.21-6,5.21,5.21,0,0,0-7.25-2.25,22.58,22.58,0,0,1-27.11-3.46,22,22,0,0,1-2.57-28.3,5.2,5.2,0,0,0-3.62-8.11,22.16,22.16,0,0,1-12.8-37.87,23.1,23.1,0,0,1,5.52-4,5.19,5.19,0,0,0,.65-8.79,23.76,23.76,0,0,1-2.41-2.06,22.1,22.1,0,0,1,.16-31.57,22.84,22.84,0,0,1,23.86-5.25l12.31,21.24-29.89,44a5.18,5.18,0,1,0,8.57,5.82l27.11-39.88,20,34.6-29.91,44a5.2,5.2,0,1,0,8.6,5.85l27.11-39.91,25.78,44.53a5.19,5.19,0,1,0,9-5.19L185.27,126.2l48.07-3.44c6.74-.4,6.39-10.47-.38-10.38a2.3,2.3,0,0,0-.37,0l-53.08,3.79-20-34.6,48-3.43c6.79-.36,6.44-10.5-.38-10.37a1.38,1.38,0,0,0-.35,0l-53.1,3.79-11.58-20A22.43,22.43,0,0,1,148.72,37a22.83,22.83,0,0,1,16-6.65ZM43.77,87.92a26,26,0,1,0,26,26A26,26,0,0,0,43.77,87.92Zm0,10.36a15.58,15.58,0,1,1-15.59,15.59A15.51,15.51,0,0,1,43.77,98.28Zm431.88,39.77a26,26,0,1,0,26,26A26,26,0,0,0,475.65,138.05Zm0,10.38A15.57,15.57,0,1,1,460.06,164,15.51,15.51,0,0,1,475.65,148.43Zm-401,9.12a9.18,9.18,0,0,0-1.89.19,12.48,12.48,0,0,0-10.3,10l-1.68,8.84-3.65-7.57a12.47,12.47,0,0,0-17.37-5.28l-8.44,4.85a12.38,12.38,0,0,0-4,17.77l5.9,8.39L22.26,191a12.51,12.51,0,0,0-16.2,8.41l-2.6,9.26a12.31,12.31,0,0,0,9.69,15.28l19.61,3.54c-5.47,9-6.42,20.29-.46,29.6-2.6,1.05-5,2.13-7.28,3.27-6.49,3.19-11.74,6.6-15.58,10.55S3,279.53,3,284.72a13.33,13.33,0,0,0,.11,1.81A5,5,0,0,0,3,287.62c0,48.77,28.43,92.62,73.47,123.94,21.56,15,47,27.22,75,35.88v35.41a5.19,5.19,0,0,0,3.79,5,349.29,349.29,0,0,0,192.34,0,5.21,5.21,0,0,0,3.78-5.24V447.47c28.09-8.66,53.49-20.86,75-35.87,45.05-31.33,73.48-75.18,73.48-124a5.1,5.1,0,0,0-.11-1.11,17.53,17.53,0,0,0,.11-1.78c0-5.17-2.57-9.93-6.44-13.85s-9.09-7.36-15.58-10.55a153.83,153.83,0,0,0-21-8.25,40.61,40.61,0,0,0-18-30.87,35,35,0,0,0,2.25-5.28v0c5.65-21.26-7.25-43.26-28.63-49.07A42.54,42.54,0,0,0,402,165.45a40,40,0,0,0-25.1,9.2,40.32,40.32,0,0,0-8.12-3.3h0a39.85,39.85,0,0,0-47.37,23.4,44.35,44.35,0,0,0-7.5-2.93c-21.37-5.78-43.49,6.8-49.12,28.06a39,39,0,0,0-1.27,9c-4,0-8,0-12,0-16.88,0-33.33.36-49.26,1s-31.25,1.67-45.88,3q-11,1-21.4,2.17c-2.6.27-5.14.59-7.68.89l-3.52-7.39-8.46-17.74c-4.63-9.69-14.1-15-24.08-15.53-.79,0-1.6,0-2.41,0l6.74-18.72a12.34,12.34,0,0,0-8.39-16.07L77.8,158a10.92,10.92,0,0,0-3.2-.35ZM74.88,168a1.31,1.31,0,0,1,.35,0l9.33,2.38a1.84,1.84,0,0,1,1.19,2.46l-8.93,24.85a27.27,27.27,0,0,0-3.24,1.63L44,216.36a26.51,26.51,0,0,0-3,2l-26-4.71a1.84,1.84,0,0,1-1.57-2.25l2.63-9.28a2.39,2.39,0,0,1,2.75-1.43L45,209.92a5.2,5.2,0,0,0,6-7.9L35.73,180.36a2.07,2.07,0,0,1,.73-2.79l8.44-4.84a2,2,0,0,1,2.81.81l10.56,21.77A5.19,5.19,0,0,0,68,194l4.57-24.35A2.42,2.42,0,0,1,74.88,168ZM402,175.78a31,31,0,0,1,7.82,1,29.9,29.9,0,0,1,21.32,36.39,28.57,28.57,0,0,1-3.11,7.39,5.16,5.16,0,0,0,2.11,7.3A29.81,29.81,0,0,1,445.67,262a29.11,29.11,0,0,1-4,8.76,5.15,5.15,0,0,0,1.67,7.38A30.32,30.32,0,0,1,456,292.56a30,30,0,0,1,1.49,4.53,28,28,0,0,1,.73,4.73,26.36,26.36,0,0,1,0,4.17,300,300,0,0,1-35.77,9.52c-22.61,4.73-49.8,8.52-80.1,11.09l17.43-30.17,67.92,4.93a5.19,5.19,0,1,0,.76-10.36l-62.92-4.58,33.52-58a5.19,5.19,0,1,0-9-5.2l-33.49,58-35.33-52a5.19,5.19,0,1,0-8.6,5.82l38.17,56.18-18.66,32.33-2.38,4.08q-5.85.4-11.85.79l-9.14-13.5-10-14.74-10-14.72a5.19,5.19,0,1,0-8.6,5.82l20,29.48,5.66,8.31q-12.82.6-26.11.91c0-1.11,0-2.22-.14-3.32-.18-2.9-.51-5.82-1-8.74s-1.11-5.87-1.89-8.79a87.42,87.42,0,0,0-19.29-35.68,28.62,28.62,0,0,1,5.76-6.36,28.93,28.93,0,0,1,7.71-4.57,29.69,29.69,0,0,1,8.95-2.08,5.19,5.19,0,0,0,3.22-8.93,29.7,29.7,0,0,1-8.25-29,29.36,29.36,0,0,1,36.36-20.67,30.22,30.22,0,0,1,10,4.84,5.21,5.21,0,0,0,8.2-3.16c.11-.54.22-1.06.33-1.49A29.36,29.36,0,0,1,366,181.28a30.86,30.86,0,0,1,8.5,3.78,5.19,5.19,0,0,0,6.49-.67,29.61,29.61,0,0,1,21-8.63ZM89.43,205.46c6.9,0,13.47,3.38,16.45,9.66l4.19,8.76L68.71,247.74a5.2,5.2,0,1,0,5.19,9l40.66-23.45,8.28,17.34,8.47,17.74c-1.95,1.87-3.82,3.81-5.61,5.85a87.66,87.66,0,0,0-16.74,29,87.41,87.41,0,0,0-3.95,16.5,2.56,2.56,0,0,0-.05.27c-5.93-.95-11.66-1.95-17.13-3a5.58,5.58,0,0,0-.43-.71l-10.79-15.1c.1-.05.21-.13.32-.18l42.83-24.73a5.19,5.19,0,1,0-5.2-9L71.71,292a4.48,4.48,0,0,0-1,.81L41.52,252.13c-5.3-7.45-2.87-18,4.28-24.33l0,0a23,23,0,0,1,3.41-2.47l29.54-17c.3-.21.59-.32.92-.51a18.05,18.05,0,0,1,2.87-1.22h0a21.35,21.35,0,0,1,6.85-1.14Zm162,33.63c4.19,0,8.33,0,12.47,0a3.16,3.16,0,0,0,.7,0,41.63,41.63,0,0,0,5.57,12.71c-1.07.33-2.16.6-3.19,1a38.71,38.71,0,0,0-10.44,6.2,39.56,39.56,0,0,0-6.63,7,87.94,87.94,0,0,0-63.19-21.81A87.67,87.67,0,0,0,139.5,261.4l-7.28-15.25-.24-.49c1.35-.22,2.73-.32,4.11-.49,6.85-.78,13.91-1.49,21.13-2.14,14.47-1.27,29.68-2.24,45.45-2.91S234.75,239.09,251.47,239.09Zm-60.22,15.33a77.3,77.3,0,0,1,75.45,57.35c.68,2.58,1.24,5.17,1.65,7.74a75.75,75.75,0,0,1,.86,7.71c.06,1,.09,1.95.11,2.92-5.43.11-11,.14-16.5.14a60.23,60.23,0,0,0-120-6.47c-6-.7-11.87-1.49-17.52-2.27,0-.14,0-.25,0-.38a77.34,77.34,0,0,1,3.49-14.53A75.8,75.8,0,0,1,125,293.14a77,77,0,0,1,8.6-12.1,76.89,76.89,0,0,1,23.73-18.39,75.79,75.79,0,0,1,14.66-5.55,77.22,77.22,0,0,1,19.31-2.65Zm264.92,8.28a138.92,138.92,0,0,1,17.15,6.87c5.82,2.87,10.14,5.85,12.77,8.53s3.46,4.76,3.46,6.59-.84,3.93-3.46,6.6-6.95,5.63-12.77,8.52c-1.49.74-3.06,1.47-4.74,2.17a6.11,6.11,0,0,0-.05-1,39.39,39.39,0,0,0-1-6.38,38.39,38.39,0,0,0-2-6.09,40.56,40.56,0,0,0-12.77-16.39,38.84,38.84,0,0,0,2.92-7.47h0C455.87,264,456,263.38,456.17,262.7Zm-417.71,3L72.9,313.86c-18.23-4.2-33-9-43.28-14.05-5.82-2.89-10.15-5.83-12.77-8.52s-3.46-4.78-3.46-6.6.83-3.92,3.46-6.59,7-5.66,12.77-8.53Q33.6,267.62,38.46,265.7Zm154.39,15.4c.41,0,.84,0,1.27,0a49.79,49.79,0,0,1,18.67,4.23l-19.08,33L184,281.86A50,50,0,0,1,192.85,281.1Zm-18.91,3.59L183.68,321,151.62,302.5A49.69,49.69,0,0,1,173.94,284.69Zm47.85,5.82a49.86,49.86,0,0,1,17.59,23.18l-36.66,9.82ZM14.42,302.82a70.16,70.16,0,0,0,10.6,6.3c13,6.39,31.11,11.9,53.37,16.56,44.53,9.31,105.61,15,173.08,15S380,335,424.55,325.68c22.28-4.66,40.38-10.17,53.37-16.56a70.66,70.66,0,0,0,10.6-6.3c-5.17,38.71-29.95,73.71-68,100.2-43,29.92-102.86,48.64-169,48.64s-126-18.72-169-48.64C44.36,376.53,19.61,341.53,14.42,302.82Zm132.19,8.79,27.82,16c-10.8-.73-21.27-1.65-31.33-2.7A50.14,50.14,0,0,1,146.61,311.61Zm95.31,12.15a46.56,46.56,0,0,1,.51,6.49c-7.82-.06-15.55-.19-23.15-.43Zm217,12.41a5.24,5.24,0,0,0-4.2,2.41A136,136,0,0,1,445.54,351a5.19,5.19,0,1,0,8,6.63,141,141,0,0,0,9.87-13.36A5.19,5.19,0,0,0,458.88,336.17Zm-20.59,24.95a5.09,5.09,0,0,0-3.58,1.49q-5.83,5.63-12.41,10.87c-4.41,3.49-9,6.81-13.9,10-19.51,12.69-42.67,22.8-68.31,29.54a5.19,5.19,0,1,0,2.62,10c26.65-7,50.83-17.53,71.34-30.9q7.71-5,14.69-10.52c4.65-3.68,9.06-7.55,13.2-11.55A5.18,5.18,0,0,0,438.29,361.12ZM161.9,450.41a350.73,350.73,0,0,0,179.14,0v28.46a339.19,339.19,0,0,1-179.14,0Z" style="stroke-miterlimit:10;stroke-width:6px;fill:url(#gradiente_web);stroke:url(#gradiente_web-2)"/></svg>