<?xml version="1.0" encoding="utf-8"?>
<!-- Generator: Adobe Illustrator 26.3.1, SVG Export Plug-In . SVG Version: 6.00 Build 0)  -->
<svg version="1.1" id="Capa_1" xmlns="http://www.w3.org/2000/svg" xmlns:xlink="http://www.w3.org/1999/xlink" x="0px" y="0px"
	 viewBox="0 0 500 500" style="enable-background:new 0 0 500 500;" xml:space="preserve">
<style type="text/css">
	.st0{fill:#60BE92;stroke:#000000;stroke-miterlimit:10;}
	.st1{fill:#EAA871;stroke:#000000;stroke-miterlimit:10;}
	.st2{fill:#B77748;}
	.st3{fill:#FEF6AA;stroke:#000000;stroke-miterlimit:10;}
	.st4{fill:#F15B6C;stroke:#000000;stroke-miterlimit:10;}
	.st5{fill:#B77748;stroke:#000000;stroke-miterlimit:10;}
</style>
<path class="st0" d="M381.3,361.6c-1.2,0.1-2.3,0.2-3.5,0.2c-8.4,0-16.6-2.9-23.1-8.1c-1.2,0.1-2.3,0.2-3.5,0.2
	c-3.6,0-7.2-0.6-10.9-1.7c-7.4-2.4-13.8-6.7-19.9-10.9c-7.3-5-14.2-9.8-21.7-9.9c-7.3-0.1-14.2,3.8-21.4,8
	c-10,5.8-21.4,12.3-35.8,8.3c-7.4-2.1-14.3-6-21-9.7c-10.2-5.8-19.9-11.3-30.2-9.3c-5.8,1.1-11,4.7-16.6,8.5
	c-3.9,2.7-7.9,5.4-12.4,7.6c-20.4,9.7-36.6,1.4-50.9-5.9c-10-5.1-19.5-10-30.2-9.2c-7.3,0.5-14.3,4.3-21.7,8.3
	c-8.1,4.4-16.5,8.9-26.4,9.8c-1.3,0.1-2.6,0.1-4,0.1v25.1c1.4-0.2,2.9-0.3,4.3-0.3h434.8c1.5,0,2.9,0.1,4.3,0.3v-17.5
	c-0.1,0-0.2,0-0.2,0c-13,0-24.2-6.5-35.1-12.8c-6.6-3.8-12.9-7.5-19.2-9.5l-9.3,13.1C401.7,355,392,360.6,381.3,361.6"/>
<path class="st1" d="M475.6,387.3C475.6,387.3,475.6,387.3,475.6,387.3c-2.6-1.1-5.4-1.7-8.2-1.7H32.6c-2.8,0-5.6,0.6-8.2,1.7
	c-2.4,1-4.5,2.5-6.3,4.3c-3.9,3.9-6.1,9.1-6.1,14.5c0,49.5,40.3,89.8,89.9,89.8h296.2c23.9,0,46.5-9.4,63.5-26.4
	c17-17,26.4-39.6,26.4-63.4C488,398,483.1,390.6,475.6,387.3"/>
<path class="st1" d="M218.3,38.9c-4.4,0.3-8.8,0.7-13.2,1.2c-0.2,0-0.5,0-0.7,0c-3.3,0-6.1-2.4-6.4-5.8c-0.4-3.6,2.1-6.8,5.7-7.2
	c4.5-0.5,9.1-1,13.7-1.3c3.6-0.3,6.7,2.4,7,6C224.6,35.5,221.9,38.7,218.3,38.9z M175.2,45.3c-31,7.2-57,19.7-77.2,37.3
	c-24.9,21.6-43.2,50.1-52.9,82.2c-0.8,2.8-3.4,4.6-6.2,4.6c-0.6,0-1.2-0.1-1.9-0.3c-3.4-1-5.4-4.7-4.3-8.1
	c10.4-34.5,30-65,56.8-88.3c21.8-19,49.7-32.5,82.8-40.1c3.5-0.8,7,1.4,7.8,4.9C180.8,41,178.7,44.5,175.2,45.3z M499.5,197.6
	c-3.9-48.2-24.3-94.1-57.4-129.1c-33.8-35.7-81-58.1-136.5-64.7C284.2,1.3,263.9,0,244.7,0C171.9,0,114.4,18.1,73.1,53.9
	C31.4,90.1,5,142.5,0.5,197.6c-0.2,2.7,0.7,5.3,2.5,7.3c1.9,2,4.4,3.2,7.2,3.2h479.6c2.8,0,5.3-1.1,7.2-3.2
	C498.8,202.9,499.7,200.3,499.5,197.6"/>
<path class="st2" d="M494.2,324c-1.5,8.4-8.7,15.7-17.4,17.8c-1,0.2-2.1,0.4-3.2,0.5c-10.3,0.8-20.2-4.9-30.7-10.9
	c-5.8-3.3-11.7-6.8-17.9-9.2l6.9-9.7l9.8-13.9c0.3-0.4,0.8-0.7,1.3-0.7h31.4c0.6,0,1.2,0,1.8-0.1h8.1c1.4,1.6,2.7,3.2,3.8,5
	c2.1,3.4,3.7,6.6,4.8,9.6C494.4,316.7,494.8,320.5,494.2,324"/>
<path class="st3" d="M443,284.9h31.4c2.2,0,4.4-0.6,6.3-1.7c0.9-0.5,1.6-1.1,2.3-1.8c2.4-2.4,3.7-5.6,3.6-8.9
	c-0.2-6.5-5.8-11.9-12.6-11.9h-20.3c-0.2,0-0.5,0-0.7,0H47.4c-0.2,0-0.5,0-0.7,0H25.5c-3.2,0-6.3,1.3-8.6,3.6
	c-2.4,2.4-3.7,5.5-3.6,8.9c0.1,2.9,1.2,5.7,3.3,7.9c2.4,2.5,5.8,4,9.3,4h286.7c4.7,0,9.2,2.3,11.9,6.2l33.8,47.6
	c0.9,1.2,1.9,2.4,2.9,3.4c0,0,0,0,0,0c5,4.8,11.8,7.2,18.8,6.5c7-0.7,13.2-4.2,17.2-10l11.8-16.6c0,0,0.1-0.1,0.1-0.1l21.9-30.9
	C433.8,287.2,438.3,284.9,443,284.9"/>
<path class="st4" d="M26.9,228.1c0.3,10.6,9.1,19.2,20,19.5c0.2,0,0.3,0,0.5,0H453c0.2,0,0.4,0,0.5,0c5.1-0.1,10-2.2,13.6-5.9
	c3.8-3.8,5.9-8.8,5.9-14.1c0-2.2-0.4-4.4-1.1-6.5H28C27.2,223.3,26.8,225.7,26.9,228.1"/>
<path class="st5" d="M342.7,339.2c-5-1.9-9.8-5.2-14.9-8.7c-8.6-5.9-17.4-12-28.9-12.2c-11-0.1-20,5.1-28,9.7
	c-8.9,5.2-16.6,9.6-25.8,7c-5.9-1.6-11.8-5-18-8.5c-11.3-6.4-24.1-13.6-39.1-10.7c-8.4,1.6-15.1,6.2-21.5,10.6
	c-3.6,2.5-7.1,4.8-10.7,6.5c-14.6,7-26.1,1.1-39.4-5.7c-10.7-5.5-22.7-11.6-37-10.6c-10.1,0.7-18.6,5.3-26.9,9.8
	c-7.3,3.9-14.2,7.6-21.4,8.3c-2.6,0.2-5.2,0-7.8-0.6c-4.9-1.2-9.4-3.8-12.6-7.4c-3.6-4-5.6-8.9-5.8-14.2c0-1.2,0-2.4,0.1-3.7
	c0.4-3.9,1.8-7.7,3.9-10.9H24c0.6,0,1.2,0.1,1.8,0.1h286.7c0.5,0,1,0.3,1.3,0.7L342.7,339.2"/>
</svg>
