<svg id="Capa_1" data-name="Capa 1" xmlns="http://www.w3.org/2000/svg" xmlns:xlink="http://www.w3.org/1999/xlink" viewBox="0 0 1080 1080"><defs><linearGradient id="Degradado_sin_nombre_2" x1="461.11" y1="836.77" x2="264.34" y2="837.08" gradientTransform="matrix(1, 0, 0, -1, 0, 1082)" gradientUnits="userSpaceOnUse"><stop offset="0" stop-color="#ffbe0b"/><stop offset="1" stop-color="#f76e2e"/></linearGradient><linearGradient id="Degradado_sin_nombre_2-2" x1="552.72" y1="625.93" x2="740.93" y2="625.93" xlink:href="#Degradado_sin_nombre_2"/><linearGradient id="Degradado_sin_nombre_2-3" x1="551.72" y1="625.93" x2="741.93" y2="625.93" xlink:href="#Degradado_sin_nombre_2"/><linearGradient id="Degradado_sin_nombre_2-4" x1="480.03" y1="416" x2="551.17" y2="416" gradientTransform="matrix(0.94, 0.35, 0.35, -0.94, -288.96, 942.17)" xlink:href="#Degradado_sin_nombre_2"/><linearGradient id="Degradado_sin_nombre_2-5" x1="477.53" y1="416" x2="553.67" y2="416" gradientTransform="matrix(0.94, 0.35, 0.35, -0.94, -288.96, 942.17)" xlink:href="#Degradado_sin_nombre_2"/><linearGradient id="Degradado_sin_nombre_2-6" x1="560.25" y1="448.88" x2="572.57" y2="448.88" gradientTransform="matrix(0.94, 0.35, 0.35, -0.94, -288.96, 942.17)" xlink:href="#Degradado_sin_nombre_2"/><linearGradient id="Degradado_sin_nombre_2-7" x1="557.76" y1="448.88" x2="575.07" y2="448.88" gradientTransform="matrix(0.94, 0.35, 0.35, -0.94, -288.96, 942.17)" xlink:href="#Degradado_sin_nombre_2"/><linearGradient id="Degradado_sin_nombre_2-8" x1="458.28" y1="737.34" x2="712.17" y2="737.34" gradientTransform="translate(92.36 -70.42) rotate(20.64)" xlink:href="#Degradado_sin_nombre_2"/><linearGradient id="Degradado_sin_nombre_2-9" x1="455.78" y1="737.34" x2="714.67" y2="737.34" gradientTransform="translate(92.36 -70.42) rotate(20.64)" xlink:href="#Degradado_sin_nombre_2"/><linearGradient id="Degradado_sin_nombre_2-10" x1="937.62" y1="754.82" x2="1008.76" y2="754.82" gradientTransform="matrix(0.94, 0.35, 0.35, -0.94, -288.96, 942.17)" xlink:href="#Degradado_sin_nombre_2"/><linearGradient id="Degradado_sin_nombre_2-11" x1="935.12" y1="754.82" x2="1011.26" y2="754.82" gradientTransform="matrix(0.94, 0.35, 0.35, -0.94, -288.96, 942.17)" xlink:href="#Degradado_sin_nombre_2"/><linearGradient id="Degradado_sin_nombre_2-12" x1="1017.85" y1="787.7" x2="1030.16" y2="787.7" gradientTransform="matrix(0.94, 0.35, 0.35, -0.94, -288.96, 942.17)" xlink:href="#Degradado_sin_nombre_2"/><linearGradient id="Degradado_sin_nombre_2-13" x1="1015.35" y1="787.7" x2="1032.67" y2="787.7" gradientTransform="matrix(0.94, 0.35, 0.35, -0.94, -288.96, 942.17)" xlink:href="#Degradado_sin_nombre_2"/><linearGradient id="Degradado_sin_nombre_2-14" x1="915.87" y1="398.51" x2="1169.76" y2="398.51" gradientTransform="translate(92.36 -70.42) rotate(20.64)" xlink:href="#Degradado_sin_nombre_2"/><linearGradient id="Degradado_sin_nombre_2-15" x1="913.37" y1="398.51" x2="1172.26" y2="398.51" gradientTransform="translate(92.36 -70.42) rotate(20.64)" xlink:href="#Degradado_sin_nombre_2"/><linearGradient id="Degradado_sin_nombre_2-16" x1="1026.25" y1="247.2" x2="859.42" y2="247.47" gradientTransform="translate(-48.51 293.49) rotate(-20.96)" xlink:href="#Degradado_sin_nombre_2"/></defs><path d="M456.73,208.48h-20.3V130.41a5.9,5.9,0,0,0-5.82-5.81h-33.3a5.9,5.9,0,0,0-5.82,5.81v16.5H369.83V136.73a5.91,5.91,0,0,0-5.82-5.79H330.73a5.89,5.89,0,0,0-5.82,5.82v12.69H297.45a5.89,5.89,0,0,0-5.82,5.82v53.21H271.35c-7.49,0-7.5,11.64,0,11.64h44.33c3.68,23.52,23.75,42,48.35,42,23.88,0,44.66-18.39,48.37-42.05h37q-13.83,60-27.68,120.05l-3.17,13.73H309.49L287.85,260q-1.62-7-3.22-13.94c-1.68-7.29-12.92-4.21-11.23,3.09q11.34,49.08,22.64,98.17l3.21,13.94a5.9,5.9,0,0,0,5.62,4.27H423.19a5.91,5.91,0,0,0,5.62-4.27l29.37-127.43,4.16-18A5.88,5.88,0,0,0,456.73,208.48Zm-53.58-44.69V136.24h21.64v72.24H407.14a5.64,5.64,0,0,0-4,1.67Q403.16,187,403.15,163.79Zm-99.88,44.69v-47.4h21.64v49.06a5.6,5.6,0,0,0-4-1.66Zm33.17,29.64a7,7,0,0,0,.11-1.2V142.55h21.64V250.09A37.18,37.18,0,0,1,336.44,238.12Zm33.43,11.94V158.54h21.64v79.7a37.25,37.25,0,0,1-21.64,11.82Z" style="fill:url(#Degradado_sin_nombre_2)"/><path d="M719.07,362a1.89,1.89,0,0,0-1.09.25l-5.43,3.14-7.69,4.47a2,2,0,0,0-.76,2.61,5.36,5.36,0,0,1-2,7.17h0a5.16,5.16,0,0,1-2.77.68,2,2,0,0,0-2,1.68,8.07,8.07,0,0,1-14.89,3,2,2,0,0,0-2.65-.64l-16.47,9.52h0l-6.07,3.51a1.94,1.94,0,0,0-.72,2.66h0c10.55,18.32,33.48,24.95,51.2,14.7s23.47-33.49,12.94-51.8A1.93,1.93,0,0,0,719.07,362ZM594.7,364.29a2,2,0,0,0-1.89,2,2,2,0,0,0,.27.92l6,10.28a12.26,12.26,0,0,0-9.86,20.38c-.28.25-.63.41-.9.67a12.35,12.35,0,0,0-.09,17.47l0,0a12,12,0,0,0,4.59,2.71,12.22,12.22,0,0,0,2.43,13.15,2.43,2.43,0,0,0,.2.25h0a12.37,12.37,0,0,0,13.25,2.55,11.84,11.84,0,0,0,1.31,1.82h0A12.47,12.47,0,0,0,624,439a10.31,10.31,0,0,0,.87,1.13h0a12.51,12.51,0,0,0,17.58-.07,12.35,12.35,0,0,0,3.43-10.6,12.16,12.16,0,0,0,2-1.34,12.36,12.36,0,0,0,1.31-16,11.37,11.37,0,0,0,1.56-1.29h0a12.3,12.3,0,0,0-8.86-21.07,12.21,12.21,0,0,0-3.35-10.84h0a12.44,12.44,0,0,0-13.32-2.68,12,12,0,0,0-2.65-4.21,12.31,12.31,0,0,0-8.78-3.57,12.44,12.44,0,0,0-11.29,7.18l-6-10.34a2,2,0,0,0-1.78-1Zm59.9,2.16a9.82,9.82,0,1,0,9.81,9.82v0a9.81,9.81,0,0,0-9.81-9.79Zm63.49.31c8.19,16.23,2.95,35.83-12.31,44.66S671,415,661.05,399.77l2.6-1.51A31.12,31.12,0,0,0,685.48,412a30.36,30.36,0,0,0,5.13.25h.8l.24,0a29.48,29.48,0,0,0,10.47-2.71l.08,0c.17-.07.32-.15.48-.23a.24.24,0,0,0,.12-.07l.48-.24.11-.05,1-.57a29.55,29.55,0,0,0,10.1-9.66l.14-.22a2.22,2.22,0,0,1,.15-.23,31.14,31.14,0,0,0,1.33-30.31Zm-5.37,3.11a27.34,27.34,0,0,1,.75,22.33,26,26,0,0,1-9.05,11.43c0,.05-.09.06-.13.1l-.3.21a1,1,0,0,1-.22.13,1.14,1.14,0,0,0-.25.18l-.35.21-.17.11c-.18.11-.36.22-.55.32s-.35.22-.54.31l-.2.11-.34.17-.26.15a1.33,1.33,0,0,1-.26.11c-.08,0-.21.11-.31.16l-.17.07A25.87,25.87,0,0,1,686,408.12a27.17,27.17,0,0,1-18.9-11.84l13.21-7.65a12.07,12.07,0,0,0,15.06,2.6h0a11.89,11.89,0,0,0,5.42-7.11,8.73,8.73,0,0,0,3.3-1,9.31,9.31,0,0,0,4.19-10.65Zm-58.13.5a5.85,5.85,0,1,1-.06,0h.06Zm-40.83,2a8.54,8.54,0,0,1,6,2.45,8.29,8.29,0,0,1,2.32,4.51,2,2,0,0,0,2.28,1.59,1.92,1.92,0,0,0,.71-.28,8.55,8.55,0,0,1,10.64,1.07,8.33,8.33,0,0,1,1.61,9.58,2,2,0,0,0,2.3,2.74,8.55,8.55,0,0,1,8.38,2.1,8.37,8.37,0,0,1,0,11.83l-.1.1a8.75,8.75,0,0,1-2.64,1.77,2,2,0,0,0-1,2.57,2,2,0,0,0,.51.7l.33.3a8.44,8.44,0,0,1-.07,11.94,8.3,8.3,0,0,1-2.13,1.53,2,2,0,0,0-1,2.27,8.56,8.56,0,0,1-14.23,8.31,8.77,8.77,0,0,1-1.44-1.88,2,2,0,0,0-2.65-.76l-.13.07a8.56,8.56,0,0,1-10.69-1,8.32,8.32,0,0,1-1.59-2.26,2,2,0,0,0-2.63-.91l-.11.06a8.52,8.52,0,0,1-10.23-1.31,8.3,8.3,0,0,1-1-10.68,2,2,0,0,0-.5-2.73,1.92,1.92,0,0,0-.87-.33,8.39,8.39,0,0,1-2.74-15.8,2,2,0,0,0,.82-2.65,2.07,2.07,0,0,0-.58-.67,9.61,9.61,0,0,1-.91-.78,8.34,8.34,0,0,1-.06-11.79l.12-.12a8.64,8.64,0,0,1,9-2l4.64,8-11.28,16.61a2,2,0,1,0,3.21,2.23l0,0,10.23-15.06,7.55,13.06-11.29,16.61a2,2,0,0,0,3.25,2.21h0l10.23-15.07,9.73,16.81a2,2,0,1,0,3.4-2l-9.73-16.74,18.14-1.3a2,2,0,0,0-.14-3.92h-.14l-20,1.43-7.54-13.06,18.11-1.29a2,2,0,0,0-.14-3.92h-.13l-20,1.43-4.38-7.55a8.47,8.47,0,0,1,2.5-5.49,8.62,8.62,0,0,1,6-2.51Zm-45.65,21.75a9.81,9.81,0,1,0,9.81,9.81,9.81,9.81,0,0,0-9.81-9.81Zm0,3.91a5.85,5.85,0,1,1-.06,0Zm163,15a9.82,9.82,0,1,0,9.81,9.81A9.81,9.81,0,0,0,731.12,413Zm0,3.92a5.88,5.88,0,1,1-5.88,5.87,5.87,5.87,0,0,1,5.88-5.87Zm-151.35,3.44a3.51,3.51,0,0,0-.72.07,4.7,4.7,0,0,0-3.88,3.77l-.64,3.34-1.38-2.86a4.7,4.7,0,0,0-6.3-2.12l-.25.13-3.19,1.83a4.67,4.67,0,0,0-1.71,6.38c.06.11.13.22.2.33l2.23,3.17L560,433a4.73,4.73,0,0,0-6,2.89l-.09.29-1,3.49a4.65,4.65,0,0,0,3.29,5.69l.36.08,7.41,1.34a10.44,10.44,0,0,0-.18,11.17c-1,.4-1.89.8-2.75,1.23a21,21,0,0,0-5.88,4,7.56,7.56,0,0,0-2.43,5.21c0,.23,0,.45,0,.68a2.85,2.85,0,0,0,0,.41c0,18.41,10.73,35,27.73,46.78a102.67,102.67,0,0,0,28.31,13.54v13.37a2,2,0,0,0,1.43,1.89,131.92,131.92,0,0,0,72.6,0,2,2,0,0,0,1.43-2V529.79a102.21,102.21,0,0,0,28.3-13.54c17-11.83,27.74-28.38,27.74-46.81a2.71,2.71,0,0,0,0-.41c0-.23,0-.45,0-.68a7.54,7.54,0,0,0-2.43-5.22,21.64,21.64,0,0,0-5.88-4A58.47,58.47,0,0,0,724,456a15.32,15.32,0,0,0-6.79-11.65,14.52,14.52,0,0,0,.85-2h0a15.25,15.25,0,0,0-10.81-18.52,16,16,0,0,0-3.95-.53,15.09,15.09,0,0,0-9.47,3.47,15.42,15.42,0,0,0-3.07-1.24h0a15,15,0,0,0-17.88,8.83,17.32,17.32,0,0,0-2.83-1.11,14.93,14.93,0,0,0-19,14h-4.53c-6.37,0-12.58.14-18.59.38s-11.79.63-17.32,1.13c-2.76.25-5.46.53-8.07.82-1,.1-1.94.22-2.9.34l-1.33-2.79-3.19-6.7A10.49,10.49,0,0,0,586,434.6h-.91l2.54-7.07a4.65,4.65,0,0,0-2.81-5.95l-.35-.11-3.54-.94a4.16,4.16,0,0,0-1.21-.13Zm.08,3.94H580l3.52.9a.69.69,0,0,1,.47.86.64.64,0,0,1,0,.07l-3.37,9.38a10.82,10.82,0,0,0-1.23.61l-11.16,6.44a8.52,8.52,0,0,0-1.13.75l-9.82-1.78a.68.68,0,0,1-.6-.77.22.22,0,0,1,0-.08l1-3.5a.91.91,0,0,1,1-.54l9.89,3.49a2,2,0,0,0,2.51-1.19,2,2,0,0,0-.25-1.8L565.08,429a.79.79,0,0,1,.27-1.06l3.19-1.82a.74.74,0,0,1,1,.26l0,0,4,8.22a2,2,0,0,0,3.68-.49l1.72-9.19A.92.92,0,0,1,579.85,424.3Zm123.47,2.94a11.7,11.7,0,0,1,2.95.38,11.28,11.28,0,0,1,8.05,13.73,10.86,10.86,0,0,1-1.17,2.79,2,2,0,0,0,.65,2.68l.14.08a11.23,11.23,0,0,1,5.86,12.88,10.68,10.68,0,0,1-1.51,3.31,2,2,0,0,0,.5,2.7l.13.08a11.43,11.43,0,0,1,4.78,5.45,11.07,11.07,0,0,1,.57,1.71,10.63,10.63,0,0,1,.27,1.78,10.42,10.42,0,0,1,0,1.58A114.21,114.21,0,0,1,711,480a257.83,257.83,0,0,1-30.23,4.18l6.58-11.38L713,474.64a2,2,0,1,0,.29-3.91h0L689.56,469l12.65-21.89a2,2,0,0,0-3.4-2L686.17,467l-13.33-19.63a2,2,0,0,0-3.25,2.2h0L684,470.81,677,483l-.9,1.54-4.47.3-3.45-5.09-3.78-5.57-3.77-5.55a2,2,0,1,0-3.25,2.19L664.89,482,667,485.1c-3.23.15-6.51.26-9.86.34a10.37,10.37,0,0,0,0-1.25,30.88,30.88,0,0,0-.38-3.3c-.18-1.1-.42-2.22-.71-3.32a33,33,0,0,0-7.28-13.47,11,11,0,0,1,5.08-4.12,11.25,11.25,0,0,1,3.38-.79A2,2,0,0,0,659,457.1a2,2,0,0,0-.61-1.28,11.2,11.2,0,0,1-3.11-10.94A11.08,11.08,0,0,1,668.88,437l.15.05a11.6,11.6,0,0,1,3.78,1.82,2,2,0,0,0,2.75-.41,1.88,1.88,0,0,0,.34-.78c.05-.2.09-.4.13-.56a11.09,11.09,0,0,1,13.55-7.88l.15.05a11.69,11.69,0,0,1,3.21,1.42,2,2,0,0,0,2.45-.25,11.18,11.18,0,0,1,7.93-3.26Zm-118,11.2a6.7,6.7,0,0,1,6.2,3.65l1.59,3.3-15.62,9a2,2,0,0,0,1.81,3.49l.15-.09L594.83,449l3.13,6.54,3.19,6.7c-.73.7-1.44,1.43-2.12,2.2a33,33,0,0,0-6.31,10.95,32.49,32.49,0,0,0-1.49,6.23.36.36,0,0,0,0,.1q-3.36-.54-6.47-1.13a1.75,1.75,0,0,0-.16-.27l-4.07-5.7.12-.07,16.16-9.33a2,2,0,0,0-2-3.4h0l-16.17,9.34a1.57,1.57,0,0,0-.38.3l-11-15.35c-2-2.82-1.08-6.8,1.62-9.19h0a8.88,8.88,0,0,1,1.28-.93l11.15-6.42.35-.19a7.3,7.3,0,0,1,1.08-.46h0a8.18,8.18,0,0,1,2.59-.43Zm61.14,12.7h5a15.89,15.89,0,0,0,2.1,4.79c-.4.13-.81.23-1.2.38a14.67,14.67,0,0,0-3.94,2.34,14.88,14.88,0,0,0-2.5,2.64,33.1,33.1,0,0,0-41.68-1.73l-2.74-5.76-.09-.19c.5-.08,1-.12,1.55-.18,2.58-.29,5.25-.56,8-.81,5.46-.48,11.2-.84,17.16-1.1s12.1-.38,18.42-.38Zm-22.73,5.78a29.19,29.19,0,0,1,28.48,21.65,27.62,27.62,0,0,1,.62,2.92,28.15,28.15,0,0,1,.33,2.91c0,.38,0,.73,0,1.1-2.05,0-4.15.05-6.23.05a22.73,22.73,0,0,0-45.29-2.44c-2.27-.26-4.48-.56-6.62-.86v-.14a30.39,30.39,0,0,1,1.32-5.48,28.68,28.68,0,0,1,2.36-5.09A28.25,28.25,0,0,1,602,467a29.16,29.16,0,0,1,14.49-9,29.31,29.31,0,0,1,7.28-1Zm100,3.13a52.4,52.4,0,0,1,6.48,2.59,18.12,18.12,0,0,1,4.81,3.22,3.59,3.59,0,0,1,1.31,2.49,3.63,3.63,0,0,1-1.31,2.49,18.2,18.2,0,0,1-4.81,3.21c-.57.28-1.16.56-1.79.82,0-.12,0-.25,0-.38a15,15,0,0,0-.38-2.4,14.08,14.08,0,0,0-.76-2.3,15.25,15.25,0,0,0-4.82-6.19,14.25,14.25,0,0,0,1.11-2.82h0c.08-.24.13-.48.2-.73Zm-157.66,1.13,13,18.18a79,79,0,0,1-16.34-5.31,18.28,18.28,0,0,1-4.82-3.21,3.67,3.67,0,0,1-1.31-2.49,3.63,3.63,0,0,1,1.31-2.49,18.37,18.37,0,0,1,4.82-3.22c1-.49,2.11-1,3.34-1.46ZM624.36,467h.48a18.64,18.64,0,0,1,7,1.6L624.69,481,621,467.28a18.68,18.68,0,0,1,3.34-.29Zm-7.13,1.36,3.69,13.7-12.1-7a18.69,18.69,0,0,1,8.42-6.72Zm18.06,2.19a18.89,18.89,0,0,1,6.64,8.75L628.09,483ZM557,475.19a26.87,26.87,0,0,0,4,2.38c4.91,2.41,11.75,4.49,20.15,6.25,16.81,3.51,39.86,5.66,65.33,5.66s48.51-2.14,65.32-5.66c8.41-1.76,15.24-3.84,20.15-6.25a26.87,26.87,0,0,0,4-2.38C734,489.8,724.67,503,710.31,513c-16.23,11.29-38.82,18.36-63.79,18.36S599,524.3,582.74,513C568.33,503,559,489.8,557,475.19Zm49.9,3.32,10.5,6c-4.08-.28-8-.63-11.83-1a18.9,18.9,0,0,1,1.33-5Zm36,4.58a16.74,16.74,0,0,1,.19,2.45c-3,0-5.87-.07-8.73-.16Zm81.91,4.69a2,2,0,0,0-1.59.91,51,51,0,0,1-3.47,4.68,2,2,0,1,0,3,2.51h0a52.6,52.6,0,0,0,3.73-5.05,2,2,0,0,0-.52-2.72,2,2,0,0,0-1.19-.33ZM717,497.19a2,2,0,0,0-1.35.57c-1.46,1.41-3,2.78-4.68,4.1s-3.4,2.57-5.25,3.77A88.53,88.53,0,0,1,680,516.78a2,2,0,1,0,.65,3.87,2.14,2.14,0,0,0,.34-.09,92.07,92.07,0,0,0,26.92-11.67c1.94-1.25,3.79-2.58,5.55-4s3.42-2.85,5-4.36a2,2,0,0,0-1.39-3.37ZM612.7,530.9a132.42,132.42,0,0,0,67.61,0v10.74a128,128,0,0,1-67.61,0Z" style="stroke-miterlimit:10;stroke-width:2px;fill:url(#Degradado_sin_nombre_2-2);stroke:url(#Degradado_sin_nombre_2-3)"/><path d="M381.71,715.08c-16.28-2.18-31.18-.82-44.28,4a91,91,0,0,0-40.72,30.28,2.9,2.9,0,1,0,4.62,3.52,85.35,85.35,0,0,1,38.12-28.35c12.2-4.53,26.16-5.79,41.49-3.73a2.91,2.91,0,0,0,.77-5.77" style="stroke-miterlimit:10;stroke-width:5px;fill:url(#Degradado_sin_nombre_2-4);stroke:url(#Degradado_sin_nombre_2-5)"/><path d="M403.28,719.76c-2.15-.63-4.31-1.22-6.4-1.74a2.9,2.9,0,0,0-1.74,5.53,2,2,0,0,0,.31.12c2,.51,4.12,1.08,6.19,1.69a2.91,2.91,0,1,0,1.87-5.51l-.23-.07" style="stroke-miterlimit:10;stroke-width:5px;fill:url(#Degradado_sin_nombre_2-6);stroke:url(#Degradado_sin_nombre_2-7)"/><path d="M478.14,902.16A11.5,11.5,0,0,1,465.41,907c-4.88-1.39-8.42-5.71-12.16-10.28a64.2,64.2,0,0,0-6.76-7.43l11.86-8a1,1,0,0,1,.93-.1l14.27,5.37a12.29,12.29,0,0,0,4.2.77,18.1,18.1,0,0,1,1.34,4C480,895.94,479.68,899.58,478.14,902.16Zm-19.81,17.91-199-75c-.42-.16-.84-.29-1.27-.41l4.43-11.78a18.63,18.63,0,0,0,2,.71c4.58,1.29,9.14.67,13.55.07,4.05-.55,7.88-1.07,11.33-.05,5.05,1.5,8.54,5.34,12.22,9.39,5.19,5.72,11.08,12.2,21.88,11.28a43.47,43.47,0,0,0,6.88-1.3c3.22-.78,6.26-1.53,9.08-1,5.1.87,8.59,5,12.27,9.46a45.85,45.85,0,0,0,7.8,7.95c5.79,4.23,12,3.21,17.48,2.31,4-.66,7.69-1.27,11,0l.14,0c3.43,1.35,5.77,4.71,8.24,8.28a36.36,36.36,0,0,0,7.09,8.28,16.61,16.61,0,0,0,6.25,3.14,17.67,17.67,0,0,0,24.19,6.32q.49-.28,1-.6l6.59-4.45a48.29,48.29,0,0,1,7.28,7.71c3.83,4.7,7.81,9.53,13.62,11.72l.32.12-3.13,8.34c-.4-.2-.79-.37-1.23-.54Zm1.71,21.6a40.26,40.26,0,0,1-51.81,23.47l-141-53.1a40.26,40.26,0,0,1-23.46-51.81l1.62-4.28a9.22,9.22,0,0,1,11.86-5.38l199,74.95a9.22,9.22,0,0,1,5.37,11.87ZM258,820.76a11.14,11.14,0,0,1,.5-9.29,12.92,12.92,0,0,1,6.05-5.77,12.11,12.11,0,0,0,5.6,4.28l130,48.95a1,1,0,0,1,.63.7l6.32,24.09c-2.26-1.78-4-4.32-5.88-7-2.86-4.11-5.81-8.37-10.89-10.37l-.22-.08c-4.81-1.81-9.7-1-14-.28-5,.84-9.27,1.53-13.1-1.26a41.09,41.09,0,0,1-6.77-7c-4-4.79-8.54-10.23-15.75-11.46-4-.69-7.81.22-11.46,1.11a38.72,38.72,0,0,1-6,1.18c-7.94.68-12.18-4-17.1-9.4-4.06-4.47-8.27-9.09-14.88-11-4.64-1.38-9.28-.75-13.76-.15-4,.55-7.78,1.06-11.2.1A12.46,12.46,0,0,1,258,820.76Zm13.66-27.62a6.12,6.12,0,0,1,4.68-.14l203.37,76.59a6.27,6.27,0,0,1,3.81,7.83,6.12,6.12,0,0,1-4.68,4h0a6.21,6.21,0,0,1-3.25-.3l-14.26-5.37a6.81,6.81,0,0,0-6.25.73L439.87,886.8l-.05,0-8.17,5.52a11.84,11.84,0,0,1-16.43-3.19,11.51,11.51,0,0,1-1.64-3.62l-7.18-27.37a6.82,6.82,0,0,0-4.21-4.67l-130-49a6.28,6.28,0,0,1-3.81-7.84,6.12,6.12,0,0,1,3.27-3.57Zm214,58.21a10,10,0,0,1-10.08,9.83,10.21,10.21,0,0,1-3.37-.63L288.31,791.28a10.13,10.13,0,0,1-6.1-12.62,9.59,9.59,0,0,1,1.85-3.22ZM275.36,764.2a4.78,4.78,0,0,1,.1-3.92,104.47,104.47,0,0,1,57.6-52.93c24.91-9.24,54.14-7.6,87.17,4.83a250.35,250.35,0,0,1,27,12.14c24.1,12.49,41.72,30.75,50.95,52.79a103.86,103.86,0,0,1,4,68.52,4.93,4.93,0,0,1-6.51,3.24L278.22,767A4.86,4.86,0,0,1,275.36,764.2ZM483.43,885.9a11.83,11.83,0,0,0,5.6-6.58,12.1,12.1,0,0,0-5.52-14.38,15.69,15.69,0,0,0,7-8.13,16.42,16.42,0,0,0,.85-3.31l2.24.85a10.77,10.77,0,0,0,13.88-6.28c.1-.26.19-.53.27-.8a109.79,109.79,0,0,0-4.18-72.42c-9.77-23.3-28.31-42.56-53.65-55.69-20.2-10.48-39.63-17.54-57.73-21-22.41-4.27-43-3-61.13,3.72a110,110,0,0,0-60.84,55.91,10.76,10.76,0,0,0,5.16,14.32c.26.12.53.23.8.33l2.24.85a15.62,15.62,0,0,0-1.64,13.78,12,12,0,0,0-13.87,7.75,11.6,11.6,0,0,0-.53,5.51,18.71,18.71,0,0,0-9,8.5,16.93,16.93,0,0,0-.73,14.09,18,18,0,0,0,4.84,6.85L252,844.32a15,15,0,0,0-12,9.59l-1.61,4.28a46.15,46.15,0,0,0,26.85,59.29l141,53.1a46.17,46.17,0,0,0,59.31-26.87l1.61-4.28a15,15,0,0,0-2.72-15.14l4.16-11a17.15,17.15,0,0,0,14.59-8.11c2.31-3.88,2.86-8.91,1.63-15a23.25,23.25,0,0,0-1.33-4.3" style="stroke-miterlimit:10;stroke-width:5px;fill:url(#Degradado_sin_nombre_2-8);stroke:url(#Degradado_sin_nombre_2-9)"/><path d="M929.35,559.26c-16.27-2.18-31.18-.82-44.28,4a91,91,0,0,0-40.72,30.28A2.9,2.9,0,1,0,849,597.1a85.35,85.35,0,0,1,38.12-28.35c12.2-4.53,26.16-5.79,41.49-3.73a2.91,2.91,0,0,0,.77-5.77" style="stroke-miterlimit:10;stroke-width:5px;fill:url(#Degradado_sin_nombre_2-10);stroke:url(#Degradado_sin_nombre_2-11)"/><path d="M950.92,563.94c-2.14-.63-4.31-1.22-6.4-1.74a2.9,2.9,0,0,0-1.74,5.53,1.75,1.75,0,0,0,.32.12c2,.51,4.11,1.08,6.18,1.69a2.91,2.91,0,0,0,1.87-5.51l-.23-.07" style="stroke-miterlimit:10;stroke-width:5px;fill:url(#Degradado_sin_nombre_2-12);stroke:url(#Degradado_sin_nombre_2-13)"/><path d="M1025.78,746.34a11.49,11.49,0,0,1-12.73,4.87c-4.88-1.39-8.41-5.71-12.16-10.28a65,65,0,0,0-6.75-7.43l11.85-8a1,1,0,0,1,.93-.1l14.27,5.37a12.29,12.29,0,0,0,4.2.77,17.59,17.59,0,0,1,1.34,4C1027.64,740.12,1027.32,743.76,1025.78,746.34ZM1006,764.25l-199-75c-.42-.16-.84-.29-1.27-.41l4.44-11.78a17.24,17.24,0,0,0,2,.71c4.57,1.29,9.13.67,13.54.07,4.06-.55,7.89-1.07,11.34,0,5,1.5,8.53,5.34,12.21,9.39,5.19,5.72,11.08,12.2,21.88,11.28a43.47,43.47,0,0,0,6.88-1.3c3.22-.78,6.26-1.53,9.09-1,5.1.87,8.58,5.05,12.26,9.46a46.22,46.22,0,0,0,7.8,8c5.79,4.23,12,3.21,17.48,2.31,4-.66,7.69-1.27,11,0l.14,0c3.43,1.35,5.77,4.71,8.24,8.28,2,2.93,4.14,6,7.09,8.28a16.61,16.61,0,0,0,6.25,3.14A17.67,17.67,0,0,0,981.56,742q.5-.29,1-.6l6.59-4.45a48.29,48.29,0,0,1,7.28,7.71c3.84,4.7,7.82,9.53,13.62,11.72l.33.12-3.14,8.34c-.4-.2-.79-.37-1.22-.54Zm1.7,21.6a40.26,40.26,0,0,1-51.81,23.47l-141-53.1a40.26,40.26,0,0,1-23.45-51.81l1.61-4.28a9.22,9.22,0,0,1,11.86-5.38l199,75a9.22,9.22,0,0,1,5.37,11.87Zm-202-120.91a11.1,11.1,0,0,1,.5-9.29,12.85,12.85,0,0,1,6-5.77,12.11,12.11,0,0,0,5.6,4.28l130,49a1,1,0,0,1,.63.7l6.32,24.09a31.7,31.7,0,0,1-5.88-7C946,716.78,943,712.52,938,710.52l-.22-.08c-4.81-1.81-9.7-1-14-.28-5,.84-9.26,1.53-13.1-1.26a41.47,41.47,0,0,1-6.77-7c-4-4.79-8.54-10.23-15.74-11.46-4-.69-7.82.22-11.47,1.11a38.72,38.72,0,0,1-6,1.18c-7.93.68-12.17-4-17.09-9.4-4.07-4.47-8.28-9.09-14.89-11-4.64-1.38-9.28-.75-13.76-.15-4,.55-7.78,1.06-11.19.1A12.41,12.41,0,0,1,805.66,664.94Zm13.66-27.62a6.12,6.12,0,0,1,4.68-.14l203.37,76.59a6.28,6.28,0,0,1,3.81,7.83,6.14,6.14,0,0,1-4.69,4h0a6.21,6.21,0,0,1-3.25-.3L1009,719.94a6.81,6.81,0,0,0-6.25.73L987.51,731l0,0-8.18,5.52a11.84,11.84,0,0,1-18.07-6.81L954,702.36a6.82,6.82,0,0,0-4.21-4.67l-130-49a6.28,6.28,0,0,1-3.81-7.84,6.11,6.11,0,0,1,3.28-3.57Zm214,58.21a10,10,0,0,1-10.08,9.83,10.21,10.21,0,0,1-3.37-.63L836,635.46a10.13,10.13,0,0,1-6.11-12.62,9.94,9.94,0,0,1,1.85-3.22ZM823,608.38a4.82,4.82,0,0,1,.1-3.92,104.52,104.52,0,0,1,57.61-52.93c24.9-9.24,54.13-7.6,87.16,4.83a249.47,249.47,0,0,1,27,12.14c24.1,12.49,41.72,30.75,50.95,52.79a103.86,103.86,0,0,1,4,68.52,4.93,4.93,0,0,1-6.51,3.24L825.86,611.17A4.91,4.91,0,0,1,823,608.38Zm208.07,121.7a11.83,11.83,0,0,0,5.6-6.58,12.1,12.1,0,0,0-5.52-14.38,15.65,15.65,0,0,0,7-8.13,16.42,16.42,0,0,0,.85-3.31l2.24.85a10.77,10.77,0,0,0,13.88-6.28c.1-.26.19-.53.27-.8A109.73,109.73,0,0,0,1051.2,619c-9.77-23.3-28.31-42.56-53.65-55.69-20.2-10.48-39.63-17.54-57.73-21-22.41-4.27-43-3-61.13,3.72A110,110,0,0,0,817.85,602,10.76,10.76,0,0,0,823,616.29c.26.12.52.23.79.33l2.24.85a15.62,15.62,0,0,0-1.64,13.78A12,12,0,0,0,810.54,639a11.85,11.85,0,0,0-.53,5.51,18.69,18.69,0,0,0-9,8.5,16.89,16.89,0,0,0-.74,14.09,18,18,0,0,0,4.84,6.85L799.6,688.5a15,15,0,0,0-12,9.59L786,702.37a46.15,46.15,0,0,0,26.86,59.29l141,53.1a46.16,46.16,0,0,0,59.31-26.87l1.61-4.28a15,15,0,0,0-2.71-15.14l4.15-11a17.13,17.13,0,0,0,14.59-8.11c2.32-3.88,2.86-8.91,1.63-15a22.51,22.51,0,0,0-1.33-4.3" style="stroke-miterlimit:10;stroke-width:5px;fill:url(#Degradado_sin_nombre_2-14);stroke:url(#Degradado_sin_nombre_2-15)"/><path d="M983.62,129.65l-16.07,6.15L943.87,74a5,5,0,0,0-6.36-2.84l-26.37,10.1a5,5,0,0,0-2.84,6.37l5,13.06-17.15,6.57-3.09-8.06a5,5,0,0,0-6.36-2.82l-26.35,10.1a5,5,0,0,0-2.85,6.37l3.85,10-21.73,8.33a5,5,0,0,0-2.85,6.38l16.14,42.12-16,6.15c-5.93,2.28-2.41,11.49,3.53,9.22l35.09-13.45c10,17.51,31.56,26.09,51,18.63,18.91-7.25,29.77-28.11,25.54-48l29.3-11.23q7.26,51.72,14.5,103.44l1.66,11.84-86.36,33.08-45.61-67.76-6.78-10.06c-3.54-5.27-11.5.58-7.95,5.85q23.86,35.43,47.7,70.86l6.77,10.06a5,5,0,0,0,5.74,1.68l93.68-35.89a5,5,0,0,0,3.15-5.09L992.47,149.29l-2.18-15.53A5,5,0,0,0,983.62,129.65Zm-56-19.13L919.29,88.7l17.13-6.56,21.92,57.2-14,5.35a4.81,4.81,0,0,0-2.68,2.54Q934.69,128.85,927.65,110.52Zm-65.52,65.67-14.38-37.52,17.13-6.57,14.88,38.84a4.79,4.79,0,0,0-3.68-.09Zm35.25,13.41a5.57,5.57,0,0,0-.27-1L868.48,113.9l17.13-6.56,32.62,85.14A31.5,31.5,0,0,1,897.38,189.6Zm30.09-.69-27.76-72.46,17.13-6.56L941,173a31.59,31.59,0,0,1-13.55,15.92Z" style="fill:url(#Degradado_sin_nombre_2-16)"/></svg>