<svg xmlns="http://www.w3.org/2000/svg" xmlns:xlink="http://www.w3.org/1999/xlink" width="500" zoomAndPan="magnify" viewBox="0 0 375 374.999991" height="500" preserveAspectRatio="xMidYMid meet" version="1.0"><path fill="#ffffff" d="M 375 317.972656 C 375 349.445312 349.492188 374.957031 318.019531 374.957031 L 56.996094 374.957031 C 25.527344 374.957031 0.015625 349.445312 0.015625 317.972656 L 0.015625 56.953125 C 0.015625 25.480469 25.527344 -0.03125 56.996094 -0.03125 L 318.019531 -0.03125 C 349.488281 -0.03125 375 25.480469 375 56.953125 Z M 375 317.972656 " fill-opacity="1" fill-rule="nonzero"/><path fill="#000000" d="M 248.480469 216.597656 L 254.546875 169.582031 L 207.984375 169.582031 L 207.984375 139.5625 C 207.984375 125.949219 211.78125 116.671875 231.300781 116.671875 L 256.175781 116.65625 L 256.175781 74.609375 C 251.882812 74.035156 237.113281 72.753906 219.90625 72.753906 C 184.003906 72.753906 159.441406 94.667969 159.441406 134.910156 L 159.441406 169.582031 L 118.839844 169.582031 L 118.839844 216.597656 L 159.441406 216.597656 L 159.441406 337.238281 L 207.984375 337.238281 L 207.984375 216.597656 Z M 248.480469 216.597656 " fill-opacity="1" fill-rule="nonzero"/></svg>